<svg xmlns="http://www.w3.org/2000/svg" width="498" height="121" viewBox="0 0 498 121">
  <path fill="#FFF" d="M78.7 74.7c-1 1.8-2.5 3.3-4.3 4.4-1.9 1.2-4 2.3-6.4 2.8-2.4.6-5 1.1-7.7 1.1H25V27h40.2c2 0 3.7.4 5.3 1.3 1.5.8 2.9 1.9 4 3.2a15 15 0 0 1 3.4 9.7c0 2.6-.7 5.1-2 7.5a12.5 12.5 0 0 1-6 5.4c3.2.9 5.7 2.5 7.6 4.8 1.8 2.4 2.7 5.5 2.7 9.4 0 2.5-.5 4.6-1.5 6.4z"/>
  <g fill="#09b3af">
    <path d="M60.8 60H40v10h20.3c1.2 0 2.3-.5 3.2-1.3.8-.8 1.3-2 1.3-3.5a6 6 0 0 0-1.1-3.6c-.8-1-1.7-1.6-2.9-1.6zM61.5 47.9c.9-.6 1.3-1.9 1.3-3.6 0-1.5-.4-2.6-1.1-3.3-.7-.6-1.6-1-2.6-1H40v9h18.7c1 0 2-.5 2.8-1.1z"/>
    <path d="M92 11H13.5C11 11 9 13 9 15.4V94c0 2.4 2 3.9 4.4 3.9H25v15.7L39.4 98H92c2.4 0 3.9-1.5 3.9-4V15.5c0-2.4-1.5-4.4-4-4.4zM78.8 74.7c-1 1.8-2.5 3.3-4.3 4.4-1.9 1.2-4 2.3-6.4 2.8-2.4.6-5 1.1-7.7 1.1H25V27h40.2c2 0 3.7.4 5.3 1.3 1.5.8 2.9 1.9 4 3.2a15 15 0 0 1 3.4 9.7c0 2.6-.7 5.1-2 7.5a12.5 12.5 0 0 1-6 5.4c3.2.9 5.7 2.5 7.6 4.8 1.8 2.4 2.7 5.5 2.7 9.4 0 2.5-.5 4.6-1.5 6.4z"/>
  </g>
  <g>
    <path fill="#FFFFFF" d="M150.139,82.646c-3.497,0-6.942-0.562-10.334-1.684c-3.392-1.119-6.262-2.749-8.611-4.892l4.464-7.671
      c2.503,1.722,4.94,3.052,7.315,3.992c2.375,0.938,4.661,1.406,6.851,1.406c1.619,0,2.871-0.284,3.759-0.859
      c0.889-0.574,1.33-1.408,1.33-2.504c0-1.097-0.56-1.973-1.682-2.622c-1.124-0.651-3.092-1.345-5.911-2.077
      c-2.768-0.781-5.103-1.538-7.008-2.268c-1.905-0.729-3.459-1.539-4.655-2.428c-1.202-0.887-2.062-1.903-2.585-3.054
      c-0.522-1.146-0.784-2.503-0.784-4.07c0-2.087,0.418-3.992,1.254-5.716c0.835-1.72,1.981-3.182,3.445-4.381
      c1.458-1.201,3.195-2.143,5.204-2.82c2.008-0.676,4.189-1.018,6.538-1.018c3.079,0,5.96,0.417,8.649,1.254
      c2.69,0.836,5.284,2.347,7.791,4.539l-4.854,7.515c-2.347-1.616-4.438-2.79-6.262-3.522c-1.829-0.729-3.601-1.096-5.324-1.096
      c-1.355,0-2.505,0.274-3.443,0.821c-0.938,0.548-1.409,1.425-1.409,2.624c0,1.148,0.508,2.008,1.525,2.583s2.907,1.202,5.678,1.879
      c2.922,0.781,5.387,1.565,7.397,2.351c2.007,0.781,3.639,1.654,4.89,2.621c1.252,0.966,2.166,2.072,2.739,3.326
      c0.575,1.252,0.864,2.742,0.864,4.462c0,4.07-1.514,7.308-4.541,9.706C159.404,81.448,155.305,82.646,150.139,82.646z"/>
    <path fill="#FFFFFF" d="M199.613,79.671c-1.722,0.731-3.694,1.412-5.911,2.037c-2.219,0.623-4.449,0.938-6.69,0.938
      c-1.569,0-3.044-0.194-4.424-0.584c-1.386-0.396-2.599-1.021-3.643-1.883c-1.042-0.859-1.867-1.995-2.465-3.403
      c-0.603-1.408-0.9-3.105-0.9-5.089V50.239h-5.246v-9.475h5.246V27.691h12.523v13.073h8.376v9.475h-8.376v17.142
      c0,1.358,0.342,2.337,1.021,2.936c0.676,0.6,1.538,0.899,2.582,0.899c0.94,0,1.905-0.154,2.897-0.468
      c0.991-0.313,1.854-0.653,2.585-1.019L199.613,79.671z"/>
    <path fill="#FFFFFF" d="M223.02,82.646c-3.498,0-6.614-0.574-9.354-1.72c-2.739-1.15-5.049-2.704-6.927-4.659
      c-1.879-1.956-3.302-4.227-4.266-6.811c-0.965-2.584-1.45-5.283-1.45-8.103c0-2.821,0.485-5.519,1.45-8.103
      c0.963-2.582,2.387-4.854,4.266-6.811c1.878-1.955,4.188-3.523,6.927-4.697c2.74-1.174,5.857-1.762,9.354-1.762
      c3.497,0,6.604,0.588,9.316,1.762c2.714,1.174,5.011,2.742,6.889,4.697c1.88,1.957,3.314,4.229,4.306,6.811
      c0.992,2.584,1.487,5.281,1.487,8.103c0,2.819-0.479,5.519-1.447,8.103c-0.967,2.584-2.387,4.854-4.267,6.811
      c-1.879,1.955-4.187,3.509-6.93,4.659C229.635,82.071,226.517,82.646,223.02,82.646z M213.862,61.354
      c0,3.237,0.862,5.833,2.582,7.789c1.726,1.957,3.916,2.936,6.576,2.936c1.307,0,2.507-0.26,3.602-0.784
      c1.097-0.52,2.047-1.251,2.857-2.189c0.81-0.939,1.449-2.075,1.917-3.407c0.47-1.33,0.705-2.778,0.705-4.344
      c0-3.235-0.862-5.833-2.582-7.789c-1.724-1.957-3.889-2.938-6.499-2.938c-1.303,0-2.519,0.262-3.639,0.786
      c-1.122,0.521-2.089,1.251-2.897,2.189c-0.811,0.94-1.449,2.075-1.917,3.405C214.097,58.338,213.862,59.788,213.862,61.354z"/>
    <path fill="#FFFFFF" d="M277.27,51.491c-3.027,0.051-5.766,0.548-8.221,1.486c-2.453,0.938-4.225,2.349-5.322,4.226v24.661h-12.523
      v-41.1h11.506v8.297c1.41-2.765,3.223-4.931,5.441-6.496c2.219-1.566,4.58-2.375,7.084-2.428c0.574,0,0.99,0,1.254,0
      c0.262,0,0.52,0.028,0.781,0.08V51.491z"/>
    <path fill="#FFFFFF" d="M282.828,88.047c1.043,0.366,2.021,0.626,2.934,0.783c0.914,0.158,1.734,0.237,2.465,0.237
      c1.518,0,2.691-0.524,3.525-1.567c0.832-1.045,1.592-2.924,2.27-5.636l-15.658-41.1h12.92l9.549,30.373l8.219-30.373h11.746
      l-15.66,47.752c-1.092,3.394-3.049,6.146-5.871,8.262c-2.816,2.111-6.158,3.17-10.018,3.17c-1.045,0-2.104-0.092-3.174-0.275
      c-1.068-0.184-2.15-0.485-3.246-0.9V88.047z"/>
    <path fill="#FFFFFF" d="M350.387,82.646c-3.133,0-5.873-0.664-8.221-1.996c-2.352-1.33-4.203-3.195-5.559-5.596v6.811h-10.883
      V24.717h12.527v22.78c1.354-2.347,3.168-4.188,5.439-5.518c2.271-1.334,4.943-1.998,8.025-1.998c2.607,0,5.01,0.562,7.201,1.684
      c2.191,1.123,4.068,2.648,5.635,4.58c1.568,1.932,2.793,4.214,3.68,6.85c0.887,2.637,1.332,5.438,1.332,8.416
      c0,2.973-0.482,5.754-1.447,8.336c-0.969,2.583-2.309,4.828-4.035,6.731c-1.721,1.907-3.758,3.395-6.104,4.463
      C355.631,82.111,353.098,82.646,350.387,82.646z M346.859,72.078c1.465,0,2.795-0.275,3.996-0.821
      c1.197-0.549,2.229-1.293,3.09-2.232c0.863-0.938,1.537-2.049,2.037-3.327c0.494-1.276,0.744-2.673,0.744-4.187
      c0-1.463-0.234-2.859-0.707-4.189c-0.471-1.33-1.107-2.492-1.916-3.482c-0.811-0.993-1.789-1.775-2.936-2.348
      c-1.148-0.574-2.375-0.864-3.682-0.864c-1.982,0-3.795,0.681-5.438,2.037c-1.646,1.354-2.91,3.052-3.797,5.087v8.613
      c0.834,1.773,2.047,3.168,3.639,4.188C343.482,71.569,345.141,72.078,346.859,72.078z"/>
    <path fill="#FFFFFF" d="M375.67,24.717h12.525v42.507c0,3.131,1.33,4.697,3.992,4.697c0.625,0,1.318-0.09,2.074-0.274
      c0.756-0.18,1.449-0.457,2.076-0.821l1.645,9.394c-1.568,0.732-3.369,1.306-5.404,1.724c-2.035,0.417-3.941,0.627-5.713,0.627
      c-3.602,0-6.367-0.94-8.299-2.82c-1.932-1.879-2.896-4.592-2.896-8.141V24.717z"/>
    <path fill="#FFFFFF" d="M421.623,82.646c-3.498,0-6.617-0.574-9.355-1.72c-2.742-1.15-5.051-2.704-6.928-4.659
      c-1.879-1.956-3.301-4.227-4.268-6.811s-1.447-5.283-1.447-8.103c0-2.821,0.48-5.519,1.447-8.103
      c0.967-2.582,2.389-4.854,4.268-6.811c1.877-1.955,4.186-3.523,6.928-4.697c2.738-1.174,5.857-1.762,9.355-1.762
      c3.494,0,6.598,0.588,9.314,1.762c2.713,1.174,5.01,2.742,6.889,4.697c1.879,1.957,3.314,4.229,4.307,6.811
      c0.988,2.584,1.488,5.281,1.488,8.103c0,2.819-0.486,5.519-1.449,8.103c-0.967,2.584-2.389,4.854-4.268,6.811
      c-1.879,1.955-4.188,3.509-6.928,4.659C428.236,82.071,425.117,82.646,421.623,82.646z M412.463,61.354
      c0,3.237,0.859,5.833,2.584,7.789c1.721,1.957,3.914,2.936,6.576,2.936c1.301,0,2.502-0.26,3.602-0.784
      c1.096-0.52,2.047-1.251,2.855-2.189c0.807-0.939,1.449-2.075,1.918-3.407c0.471-1.33,0.703-2.778,0.703-4.344
      c0-3.235-0.859-5.833-2.584-7.789c-1.719-1.957-3.887-2.938-6.494-2.938c-1.309,0-2.52,0.262-3.643,0.786
      c-1.121,0.521-2.088,1.251-2.895,2.189c-0.811,0.94-1.449,2.075-1.92,3.405S412.463,59.788,412.463,61.354z"/>
    <path fill="#FFFFFF" d="M477.439,81.864l-10.729-16.517l-4.385,4.538v11.979h-12.523V24.717h12.523v33.112l13.857-17.064h13.309
      l-14.795,17.693l16.049,23.406H477.439z"/>
  </g>
</svg>

